<?xml version="1.0" standalone="no"?>
<!DOCTYPE svg PUBLIC "-//W3C//DTD SVG 20010904//EN"
 "http://www.w3.org/TR/2001/REC-SVG-20010904/DTD/svg10.dtd">
<svg version="1.0" xmlns="http://www.w3.org/2000/svg"
 width="700.000000pt" height="700.000000pt" viewBox="0 0 700.000000 700.000000"
 preserveAspectRatio="xMidYMid meet">
<metadata>
Created by potrace 1.14, written by Peter Selinger 2001-2017
</metadata>
<g transform="translate(0.000000,700.000000) scale(0.100000,-0.100000)"
fill="#000000" stroke="none">
<path d="M2765 6985 c-306 -66 -535 -291 -611 -600 -4 -16 -9 -246 -11 -510
l-4 -480 -27 -20 c-377 -279 -675 -688 -820 -1127 -53 -160 -96 -344 -107
-463 -4 -38 -9 -79 -11 -90 -7 -33 -6 -315 1 -390 9 -102 25 -205 51 -325 3
-14 7 -36 10 -50 3 -14 28 -92 55 -175 149 -442 410 -807 793 -1110 20 -16 41
-32 46 -35 6 -4 10 -198 10 -466 1 -480 3 -515 47 -634 89 -240 289 -420 540
-485 l88 -23 700 2 c632 1 706 3 760 19 318 92 531 334 580 657 2 19 5 235 5
480 l1 445 87 68 c301 234 556 571 707 932 39 93 98 274 110 334 2 13 6 30 9
39 3 9 8 31 10 47 15 85 15 85 57 86 21 1 42 2 47 3 4 1 23 6 42 10 101 24
204 110 254 211 54 111 45 269 -22 370 -73 111 -202 184 -324 185 -33 0 -38 3
-43 28 -61 332 -200 661 -391 928 -114 160 -277 338 -410 446 -59 49 -114 92
-124 98 -6 3 -10 204 -10 471 -1 528 -4 549 -82 707 -108 215 -290 356 -543
419 -16 4 -340 8 -720 9 -536 2 -703 -1 -750 -11z"/>
</g>
</svg>
